<svg xmlns="http://www.w3.org/2000/svg" viewBox="0 0 215.94 322.36">
    <defs>
        <style>
            .cls-1,.cls-2,.cls-3,.cls-4,.cls-5,.cls-7{
                fill:none;
                stroke:#fff;
                stroke-miterlimit:10;
            }
            .cls-1,.cls-7{
                stroke-width:4px;
            }
            .cls-2,.cls-5{
                stroke-width:6px;
            }
            .cls-3,.cls-5,.cls-7{
                stroke-linecap:round;
            }
            .cls-3,.cls-4{
                stroke-width:5px;
            }
            .cls-6{
                fill:#fff;
            }
        </style>
    </defs>
    <g id="Capa_2" data-name="Capa 2">
        <g id="Capa_1-2" data-name="Capa 1">
            <circle class="cls-1" cx="142" cy="114.7" r="12.57"/>
            <circle class="cls-1" cx="144.76" cy="203.54" r="12.57"/>
            <path class="cls-1" d="M177,156.82A12.56,12.56,0,0,0,197,167c.1-1.78.16-3.57.16-5.37a90.18,90.18,0,0,0-1.38-15.78,12.56,12.56,0,0,0-18.71,11Z"/>
            <circle class="cls-1" cx="69.75" cy="114.7" r="12.57"/>
            <circle class="cls-1" cx="69.75" cy="203.54" r="12.57"/>
            <circle class="cls-2" cx="107.27" cy="161.31" r="89.86"/>
            <path class="cls-1" d="M17.62,167.48a12.58,12.58,0,1,0,1.17-22,90.41,90.41,0,0,0-1.39,15.8C17.4,163.38,17.48,165.44,17.62,167.48Z"/>
            <line class="cls-3" x1="105.88" y1="221.44" x2="105.88" y2="71.44"/>
            <path class="cls-4" d="M105.88,221.44q13.16,13.37,26.3,26.75"/>
            <path class="cls-4" d="M105.88,221.44,80.17,247"/>
            <path class="cls-5" d="M144,79.29A89.91,89.91,0,0,0,67,81c-.69-2.58-4.4-17.38,4.49-31.19,11.18-17.37,32.1-17.32,34.41-17.27,4.25.08,18.3,1,28.87,12.73C147.51,59.34,144.43,77.2,144,79.29Z"/>
            <path class="cls-3" d="M80.94,52.05a163.33,163.33,0,0,0-7.7-17.94C64.31,16.32,57.34,10.56,54.93,8.7,51.58,6.11,44.43.6,39.64,3.16c-2.33,1.25-3.33,4-3.79,6.07"/>
            <path class="cls-3" d="M126.79,50.91A151,151,0,0,1,145,16.81C151.09,8.29,155.79,3.68,162,3.16a16.71,16.71,0,0,1,9.47,2.28"/>
            <path class="cls-3" d="M41.28,100.32a28.57,28.57,0,0,0-4.55-6.52,26.88,26.88,0,0,0-6.95-5.37"/>
            <path class="cls-3" d="M26.36,122.15a24,24,0,0,0-7.14-5.1,23.41,23.41,0,0,0-8-2.1"/>
            <path class="cls-3" d="M17.81,152.74a26.14,26.14,0,0,0-8.78,1,25.64,25.64,0,0,0-6.53,2.92"/>
            <circle class="cls-2" cx="107.27" cy="161.31" r="89.86"/>
            <circle class="cls-4" cx="107.27" cy="161.31" r="89.86"/>
            <path class="cls-6" d="M18.13,315.41a11,11,0,0,0,3.86-.64,10.82,10.82,0,0,0,2.59-1.24l3,6a12.74,12.74,0,0,1-3.7,1.9,18.11,18.11,0,0,1-6.22,1,16.64,16.64,0,0,1-6.32-1.19,16.11,16.11,0,0,1-5.19-3.38A15.7,15.7,0,0,1,1.3,306.34,15.87,15.87,0,0,1,2.57,300a15.66,15.66,0,0,1,3.51-5.14,16.23,16.23,0,0,1,5.21-3.39,16.55,16.55,0,0,1,6.33-1.21,18.11,18.11,0,0,1,6.22,1,12.74,12.74,0,0,1,3.7,1.9l-3,6A10.07,10.07,0,0,0,22,297.8a11.28,11.28,0,0,0-3.86-.63,10.5,10.5,0,0,0-4.1.74,8.16,8.16,0,0,0-2.93,2,8.36,8.36,0,0,0-1.75,2.91,10,10,0,0,0-.58,3.41,10.14,10.14,0,0,0,.58,3.44,8.44,8.44,0,0,0,1.75,2.93,8.27,8.27,0,0,0,2.93,2A10.5,10.5,0,0,0,18.13,315.41Z"/>
            <path class="cls-6" d="M42,290.78h6.85l12,31H53.52l-2.22-6.23H39.59l-2.23,6.23H30Zm-.11,18.64H49l-3.53-10.18h-.07Z"/>
            <path class="cls-6" d="M66.43,296.94H59.17v-6.16H80.56v6.16H73.32V321.8H66.43Z"/>
            <path class="cls-6" d="M91.19,290.78H98l12,31h-7.36l-2.21-6.23H88.77l-2.24,6.23H79.15Zm-.12,18.64H98.2l-3.53-10.18H94.6Z"/>
            <path class="cls-6" d="M112.74,290.78h12.41a9.72,9.72,0,0,1,4.72,1.13,8.29,8.29,0,0,1,3.29,3.25,10.07,10.07,0,0,1,1.21,5.07,9.82,9.82,0,0,1-1,4.8,7.56,7.56,0,0,1-2.45,2.8,7,7,0,0,1-2.65,1.12l7.4,12.85h-7.75l-6.59-12.31h-1.66V321.8h-6.9Zm6.9,13.84h3a5.71,5.71,0,0,0,3.23-.91,4.52,4.52,0,0,0,0-6.48,5.64,5.64,0,0,0-3.2-.9h-3.09Z"/>
            <path class="cls-6" d="M140.82,290.78h6.9v31h-6.9Z"/>
            <path class="cls-6" d="M159.84,297.22l.51.09V321.8h-6.89v-31h9.4l12.34,24.44-.51.1V290.78h6.89v31h-9.45Z"/>
            <path class="cls-6" d="M197.08,290.78h6.84l12,31h-7.36l-2.21-6.23H194.66l-2.24,6.23H185ZM197,309.42h7.13l-3.53-10.18h-.07Z"/>
            <path class="cls-7" d="M173.89,101A40.15,40.15,0,0,1,186,86.78"/>
            <path class="cls-3" d="M188.2,122.2a44.24,44.24,0,0,1,8.45-5.6,43.22,43.22,0,0,1,6.82-2.78"/>
            <path class="cls-3" d="M196.7,152.52a58.83,58.83,0,0,1,6.52,1,56.93,56.93,0,0,1,9.34,2.78"/>
        </g>
    </g>
</svg>